<svg width="95" height="28" viewBox="0 0 95 28" fill="none" xmlns="http://www.w3.org/2000/svg">
<path d="M91.1379 28H3.3103C1.4854 28 0 26.5104 0 24.6869V3.3082C0 1.484 1.4854 0 3.3103 0H91.1379C92.9621 0 94.5 1.484 94.5 3.3082V24.6869C94.5 26.5104 92.9621 28 91.1379 28Z" fill="#A6A6A6"/>
<path d="M93.8224 24.6876C93.8224 26.1688 92.6226 27.3686 91.1386 27.3686H3.31029C1.82699 27.3686 0.622986 26.1688 0.622986 24.6876V3.30749C0.622986 1.82699 1.82699 0.622986 3.31029 0.622986H91.1379C92.6226 0.622986 93.8217 1.82699 93.8217 3.30749L93.8224 24.6876Z" fill="#262626"/>
<path d="M21.0894 13.8493C21.0691 11.5932 22.9367 10.4956 23.0221 10.4445C21.9644 8.90243 20.325 8.69173 19.7489 8.67493C18.372 8.53003 17.0364 9.49883 16.335 9.49883C15.6196 9.49883 14.5395 8.68893 13.3754 8.71273C11.8774 8.73583 10.476 9.60313 9.70737 10.9499C8.12117 13.696 9.30417 17.7315 10.8239 19.9512C11.5841 21.0383 12.4724 22.2521 13.6351 22.2094C14.7726 22.1625 15.1975 21.4842 16.5702 21.4842C17.9303 21.4842 18.3293 22.2094 19.5151 22.1821C20.7359 22.1625 21.5045 21.0901 22.2381 19.9932C23.1166 18.7472 23.4694 17.5201 23.4834 17.4571C23.4547 17.4473 21.1125 16.5534 21.0894 13.8493Z" fill="white"/>
<path d="M18.8489 7.21386C19.4607 6.44876 19.8793 5.40786 19.7631 4.35156C18.8776 4.39076 17.7702 4.96406 17.1325 5.71236C16.5683 6.37176 16.0643 7.45256 16.1945 8.46896C17.1892 8.54316 18.2105 7.96706 18.8489 7.21386Z" fill="white"/>
<path fill-rule="evenodd" clip-rule="evenodd" d="M35.9623 22.0539H37.552L34.5385 12.7383H32.6863L29.6875 22.0539H31.2352L32.0647 19.3176H35.0915L35.9623 22.0539ZM34.0417 15.7373L34.8292 18.1698H32.3281L33.1016 15.7373C33.3046 14.9638 33.4523 14.3786 33.544 13.9824H33.572C33.8023 14.9036 33.9584 15.4888 34.0417 15.7373Z" fill="white"/>
<path fill-rule="evenodd" clip-rule="evenodd" d="M44.3375 21.3214C44.9549 20.6585 45.2636 19.7555 45.2636 18.6131C45.2636 17.5904 44.999 16.7658 44.4684 16.1386C43.9392 15.5121 43.2777 15.1992 42.4853 15.1992C41.4717 15.1992 40.7164 15.5996 40.2187 16.4018H40.1907L40.1074 15.3371H38.7949C38.8313 16.0931 38.8502 16.8302 38.8502 17.5484V24.7913H40.3426V21.2528H40.3706C40.7577 21.8884 41.3933 22.2062 42.2781 22.2062C43.0978 22.2062 43.7845 21.9115 44.3375 21.3214ZM43.3012 17.0503C43.5967 17.4745 43.7436 18.0135 43.7436 18.6673C43.7436 19.3771 43.5869 19.9483 43.2733 20.3816C42.9604 20.8142 42.5229 21.0312 41.9608 21.0312C41.482 21.0312 41.0928 20.8632 40.7931 20.5265C40.4936 20.1898 40.3438 19.7775 40.3438 19.2889V18.1689C40.3438 18.0499 40.3669 17.8987 40.4131 17.7139C40.5048 17.3177 40.7007 16.9978 41.0003 16.7528C41.2993 16.5099 41.6339 16.3867 42.002 16.3867C42.5452 16.3867 42.9785 16.6079 43.3012 17.0503Z" fill="white"/>
<path fill-rule="evenodd" clip-rule="evenodd" d="M52.0627 21.3214C52.6808 20.6585 52.9895 19.7555 52.9895 18.6131C52.9895 17.5904 52.7242 16.7658 52.1957 16.1386C51.6651 15.5121 51.0036 15.1992 50.2119 15.1992C49.1976 15.1992 48.4423 15.5996 47.9453 16.4018H47.9173L47.834 15.3371H46.5215C46.5579 16.0931 46.5768 16.8302 46.5768 17.5484V24.7913H48.0692V21.2528H48.0972C48.4836 21.8884 49.1192 22.2062 50.004 22.2062C50.8237 22.2062 51.5104 21.9115 52.0627 21.3214ZM51.0261 17.0503C51.3215 17.4745 51.4692 18.0135 51.4692 18.6673C51.4692 19.3771 51.3124 19.9483 50.9988 20.3816C50.6859 20.8142 50.2484 21.0312 49.6863 21.0312C49.2061 21.0312 48.8169 20.8625 48.5173 20.5265C48.2191 20.1898 48.0693 19.7775 48.0693 19.2889V18.1689C48.0693 18.0499 48.0931 17.8987 48.1386 17.7139C48.2303 17.3177 48.4256 16.9978 48.7252 16.7528C49.0248 16.5099 49.3587 16.3867 49.7276 16.3867C50.2715 16.3867 50.7034 16.6079 51.0261 17.0503Z" fill="white"/>
<path d="M61.6278 19.4413C61.6278 20.2337 61.3527 20.8784 60.8004 21.3761C60.1935 21.92 59.3486 22.1916 58.2629 22.1916C57.2605 22.1916 56.4569 21.9984 55.8486 21.6113L56.1944 20.3674C56.8496 20.7636 57.5685 20.9624 58.3518 20.9624C58.9139 20.9624 59.3514 20.835 59.6657 20.5816C59.9786 20.3282 60.1347 19.988 60.1347 19.5638C60.1347 19.1858 60.0059 18.8673 59.7476 18.609C59.4907 18.3507 59.0616 18.1106 58.4624 17.8887C56.8314 17.2804 56.0166 16.3893 56.0166 15.2175C56.0166 14.4517 56.3022 13.8238 56.8741 13.3352C57.4439 12.8459 58.2041 12.6016 59.1547 12.6016C60.0024 12.6016 60.7066 12.7493 61.2687 13.044L60.8956 14.2606C60.3706 13.975 59.777 13.8322 59.1127 13.8322C58.5877 13.8322 58.1775 13.9617 57.8835 14.2193C57.635 14.4496 57.5104 14.7303 57.5104 15.0628C57.5104 15.431 57.6525 15.7355 57.9381 15.9749C58.1866 16.1961 58.6381 16.4355 59.2933 16.6938C60.0948 17.0165 60.6835 17.3938 61.0622 17.8264C61.4395 18.2576 61.6278 18.7973 61.6278 19.4413Z" fill="white"/>
<path d="M66.5615 16.4558H64.9165V19.7171C64.9165 20.5466 65.2063 20.961 65.7873 20.961C66.054 20.961 66.2752 20.9379 66.4502 20.8917L66.4915 22.025C66.1975 22.1349 65.8104 22.1902 65.3309 22.1902C64.7415 22.1902 64.2809 22.0103 63.9484 21.6512C63.6173 21.2914 63.4507 20.688 63.4507 19.8403V16.4544H62.4707V15.3344H63.4507V14.1045L64.9165 13.6621V15.3344H66.5615V16.4558Z" fill="white"/>
<path fill-rule="evenodd" clip-rule="evenodd" d="M73.0988 21.1828C73.6882 20.5199 73.9836 19.6722 73.9836 18.6397C73.9836 17.6352 73.698 16.8155 73.1254 16.1806C72.5269 15.5261 71.7338 15.1992 70.7482 15.1992C69.7255 15.1992 68.9121 15.531 68.3094 16.1946C67.7053 16.8575 67.4043 17.7101 67.4043 18.751C67.4043 19.7457 67.6969 20.571 68.2821 21.2248C68.8673 21.8786 69.652 22.2055 70.6376 22.2055C71.6603 22.2055 72.4807 21.8653 73.0988 21.1828ZM72.0345 17.0946C72.3026 17.5377 72.4349 18.069 72.4349 18.6885C72.4349 19.3073 72.2963 19.8442 72.0212 20.2957C71.6985 20.8403 71.2512 21.1133 70.6814 21.1133C70.0997 21.1133 69.6489 20.8459 69.3262 20.3097C69.0581 19.8673 68.9258 19.336 68.9258 18.7165C68.9258 18.0781 69.0581 17.5384 69.3262 17.0946C69.6391 16.5591 70.0948 16.291 70.6947 16.291C71.2743 16.291 71.7216 16.5584 72.0345 17.0946Z" fill="white"/>
<path d="M78.835 16.6496C78.6873 16.6223 78.5298 16.6083 78.3646 16.6083C77.8396 16.6083 77.4336 16.8064 77.148 17.2033C76.8995 17.5533 76.7749 17.9957 76.7749 18.5298V22.0543H75.2832L75.2972 17.4525C75.2972 16.6783 75.2783 15.9734 75.2412 15.3378H76.5411L76.5957 16.623H76.637C76.7945 16.1813 77.043 15.8257 77.3832 15.559C77.7157 15.3189 78.0748 15.1992 78.4619 15.1992C78.5998 15.1992 78.7244 15.209 78.835 15.2265V16.6496Z" fill="white"/>
<path fill-rule="evenodd" clip-rule="evenodd" d="M85.455 19.0537C85.4921 18.8696 85.5096 18.6442 85.5096 18.3768C85.5096 17.5389 85.3115 16.8333 84.9174 16.2628C84.4197 15.5446 83.6868 15.1855 82.7187 15.1855C81.7331 15.1855 80.9498 15.5446 80.3702 16.2628C79.8165 16.9355 79.54 17.779 79.54 18.7919C79.54 19.8237 79.8375 20.6462 80.4311 21.2587C81.0261 21.8712 81.8437 22.1778 82.8853 22.1778C83.7512 22.1778 84.5016 22.0399 85.1372 21.7627L84.9034 20.7267C84.3595 20.9388 83.7547 21.0445 83.0918 21.0445C82.4926 21.0445 82.0047 20.8877 81.6274 20.5748C81.2116 20.2248 80.9953 19.7173 80.9778 19.0537H85.455ZM83.7974 16.843C83.9997 17.1657 84.097 17.5479 84.0872 17.9903V17.9896H80.9785C81.024 17.5388 81.1717 17.1517 81.4202 16.829C81.7233 16.423 82.1202 16.2207 82.6081 16.2207C83.1422 16.2207 83.5391 16.4279 83.7974 16.843Z" fill="white"/>
<path fill-rule="evenodd" clip-rule="evenodd" d="M33.5944 8.86767C34.0879 8.45117 34.335 7.83097 34.335 7.00707C34.335 6.27347 34.1061 5.70997 33.6497 5.31587C33.2423 4.96727 32.6382 4.79297 31.8367 4.79297C31.3831 4.79297 30.9631 4.82517 30.5732 4.88817V9.38987C30.8721 9.42627 31.2291 9.44447 31.6463 9.44447C32.4877 9.44447 33.1373 9.25197 33.5944 8.86767ZM33.1371 5.79879C33.4199 6.08439 33.5613 6.49389 33.5613 7.02799C33.5613 7.62579 33.4073 8.08079 33.1021 8.39299C32.7969 8.70519 32.3636 8.86129 31.8022 8.86129C31.5621 8.86129 31.3969 8.85499 31.3066 8.84099V5.41869C31.4697 5.38649 31.6664 5.37109 31.8974 5.37109C32.4413 5.37109 32.8543 5.51389 33.1371 5.79879Z" fill="white"/>
<path fill-rule="evenodd" clip-rule="evenodd" d="M38.0023 8.97641C38.2921 8.65021 38.437 8.23441 38.437 7.72691C38.437 7.23411 38.2963 6.83091 38.0163 6.51871C37.7216 6.19741 37.3324 6.03711 36.848 6.03711C36.3454 6.03711 35.9464 6.20021 35.6496 6.52571C35.3528 6.85121 35.2051 7.27051 35.2051 7.78151C35.2051 8.27011 35.3486 8.67541 35.6356 8.99671C35.9233 9.31871 36.309 9.47901 36.7934 9.47901C37.296 9.47901 37.6985 9.31171 38.0023 8.97641ZM37.4795 6.96707C37.6104 7.18477 37.6762 7.44587 37.6762 7.75037C37.6762 8.05487 37.6083 8.31807 37.4725 8.53997C37.3143 8.80807 37.0945 8.94177 36.8145 8.94177C36.5289 8.94177 36.3077 8.81017 36.1488 8.54697C36.0179 8.32927 35.9521 8.06817 35.9521 7.76367C35.9521 7.45007 36.0172 7.18477 36.1488 6.96707C36.3028 6.70387 36.5268 6.57227 36.8215 6.57227C37.1064 6.57227 37.3255 6.70387 37.4795 6.96707Z" fill="white"/>
<path d="M43.9353 6.10352L42.9028 9.40332H42.2308L41.8031 7.97042C41.6946 7.61272 41.6064 7.25712 41.5378 6.90432H41.5245C41.4608 7.26692 41.3726 7.62182 41.2592 7.97042L40.8049 9.40332H40.1252L39.1543 6.10352H39.9082L40.2813 7.67222C40.3716 8.04322 40.4458 8.39672 40.5053 8.73132H40.5186C40.5732 8.45552 40.6635 8.10412 40.7909 7.67922L41.2592 6.10422H41.857L42.3057 7.64562C42.4142 8.02152 42.5024 8.38342 42.5703 8.73202H42.5906C42.6403 8.39252 42.7152 8.03062 42.8146 7.64562L43.215 6.10422H43.9353V6.10352Z" fill="white"/>
<path d="M47.7381 9.40426H47.0045V7.51426C47.0045 6.93186 46.7833 6.64066 46.3395 6.64066C46.1218 6.64066 45.9461 6.72046 45.8096 6.88076C45.6745 7.04106 45.6059 7.23006 45.6059 7.44636V9.40356H44.8723V7.04736C44.8723 6.75756 44.8632 6.44326 44.8457 6.10306H45.4904L45.5247 6.61896H45.545C45.6304 6.45866 45.7578 6.32636 45.9251 6.22066C46.1239 6.09746 46.3465 6.03516 46.5901 6.03516C46.8981 6.03516 47.1543 6.13456 47.358 6.33406C47.6114 6.57836 47.7381 6.94306 47.7381 7.42746V9.40426Z" fill="white"/>
<path d="M49.7612 9.40374H49.0283V4.58984H49.7612V9.40374Z" fill="white"/>
<path fill-rule="evenodd" clip-rule="evenodd" d="M53.6458 8.97641C53.9356 8.65021 54.0805 8.23441 54.0805 7.72691C54.0805 7.23411 53.9398 6.83091 53.6598 6.51871C53.3644 6.19741 52.9759 6.03711 52.4908 6.03711C51.9889 6.03711 51.5899 6.20021 51.2931 6.52571C50.9963 6.85121 50.8486 7.27051 50.8486 7.78151C50.8486 8.27011 50.9921 8.67541 51.2791 8.99671C51.5661 9.31871 51.9518 9.47901 52.4369 9.47901C52.9388 9.47901 53.342 9.31171 53.6458 8.97641ZM53.1224 6.96707C53.2533 7.18477 53.3191 7.44587 53.3191 7.75037C53.3191 8.05487 53.2519 8.31807 53.1154 8.53997C52.9572 8.80807 52.7381 8.94177 52.4581 8.94177C52.1725 8.94177 51.9513 8.81017 51.7924 8.54697C51.6615 8.32927 51.5957 8.06817 51.5957 7.76367C51.5957 7.45007 51.6608 7.18477 51.7924 6.96707C51.9457 6.70387 52.1697 6.57227 52.4651 6.57227C52.7493 6.57227 52.9691 6.70387 53.1224 6.96707Z" fill="white"/>
<path fill-rule="evenodd" clip-rule="evenodd" d="M56.9722 9.40411H57.6309C57.5994 9.20951 57.5833 8.94701 57.5833 8.61731V7.40211C57.5833 6.49211 57.1507 6.03711 56.2883 6.03711C55.8417 6.03711 55.463 6.13231 55.1564 6.32201L55.3055 6.80361C55.5533 6.64121 55.8403 6.55931 56.1658 6.55931C56.6229 6.55931 56.8511 6.77631 56.8511 7.21101V7.27261C56.24 7.26771 55.7654 7.37201 55.428 7.58481C55.0899 7.79761 54.9219 8.10491 54.9219 8.50811C54.9219 8.77481 55.008 8.99951 55.1802 9.18011C55.3699 9.37891 55.6219 9.47901 55.9334 9.47901C56.3506 9.47901 56.6719 9.32711 56.8973 9.02401H56.9176L56.9722 9.40411ZM56.8691 7.76039V8.26929C56.8691 8.31899 56.8649 8.36239 56.8572 8.39809C56.8257 8.55699 56.741 8.68649 56.6031 8.78869C56.4659 8.89019 56.3154 8.94129 56.1544 8.94129C56.0109 8.94129 55.8905 8.89859 55.796 8.81249C55.7015 8.72639 55.6553 8.59759 55.6553 8.42539C55.6553 7.96829 56.0599 7.74639 56.8691 7.76039Z" fill="white"/>
<path fill-rule="evenodd" clip-rule="evenodd" d="M61.1484 9.40374H61.7994C61.7819 9.13214 61.7735 8.83604 61.7735 8.51474V4.58984H61.0392V6.48404H61.0252C60.8488 6.18514 60.5387 6.03604 60.0956 6.03604C59.6924 6.03604 59.3536 6.19004 59.0771 6.49804C58.7915 6.82844 58.6494 7.26104 58.6494 7.79514C58.6494 8.29284 58.7803 8.69814 59.0428 9.01034C59.3053 9.32254 59.6364 9.47864 60.034 9.47864C60.5317 9.47864 60.8859 9.27704 61.0938 8.87384H61.1141L61.1484 9.40374ZM61.0397 7.46282V8.01302C61.0397 8.24822 60.9704 8.44982 60.829 8.61712C60.6827 8.79842 60.4902 8.88872 60.2494 8.88872C59.9813 8.88872 59.7671 8.78022 59.6082 8.56322C59.4577 8.35952 59.3828 8.09492 59.3828 7.76872C59.3828 7.42922 59.4619 7.15132 59.618 6.93362C59.7755 6.71592 59.9897 6.60742 60.2634 6.60742C60.4531 6.60742 60.6176 6.66762 60.7541 6.78732C60.8892 6.90702 60.9781 7.05542 61.0194 7.23182C61.0327 7.29062 61.0397 7.36762 61.0397 7.46282Z" fill="white"/>
<path fill-rule="evenodd" clip-rule="evenodd" d="M67.639 8.97641C67.9288 8.65021 68.0737 8.23441 68.0737 7.72691C68.0737 7.23411 67.933 6.83091 67.653 6.51871C67.359 6.19741 66.9691 6.03711 66.4854 6.03711C65.9821 6.03711 65.5831 6.20021 65.2863 6.52571C64.9895 6.85121 64.8418 7.27051 64.8418 7.78151C64.8418 8.27011 64.9853 8.67541 65.2723 8.99671C65.5607 9.31871 65.9464 9.47901 66.4301 9.47901C66.9334 9.47901 67.3352 9.31171 67.639 8.97641ZM67.117 6.96707C67.2479 7.18477 67.3137 7.44587 67.3137 7.75037C67.3137 8.05487 67.2451 8.31807 67.11 8.53997C66.9518 8.80807 66.7313 8.94177 66.4513 8.94177C66.1657 8.94177 65.9445 8.81017 65.7856 8.54697C65.6547 8.32927 65.5889 8.06817 65.5889 7.76367C65.5889 7.45007 65.654 7.18477 65.7856 6.96707C65.9403 6.70387 66.1643 6.57227 66.4583 6.57227C66.7439 6.57227 66.9623 6.70387 67.117 6.96707Z" fill="white"/>
<path d="M72.0187 9.40426H71.2858V7.51426C71.2858 6.93186 71.0646 6.64066 70.6201 6.64066C70.4024 6.64066 70.2267 6.72046 70.0909 6.88076C69.9551 7.04106 69.8872 7.23006 69.8872 7.44636V9.40356H69.1529V7.04736C69.1529 6.75756 69.1445 6.44326 69.127 6.10306H69.771L69.8053 6.61896H69.8256C69.9117 6.45866 70.0391 6.32636 70.2057 6.22066C70.4052 6.09746 70.6271 6.03516 70.8714 6.03516C71.1787 6.03516 71.4349 6.13456 71.6386 6.33406C71.8927 6.57836 72.0187 6.94306 72.0187 7.42746V9.40426Z" fill="white"/>
<path d="M76.955 6.65255H76.1472V8.25555C76.1472 8.66295 76.2907 8.86665 76.5749 8.86665C76.7065 8.86665 76.8157 8.85545 76.9018 8.83235L76.9207 9.38885C76.7758 9.44345 76.5854 9.47075 76.3509 9.47075C76.0611 9.47075 75.8357 9.38255 75.6726 9.20615C75.5088 9.02975 75.4276 8.73295 75.4276 8.31645V6.65255H74.9453V6.10305H75.4276V5.49825L76.1465 5.28125V6.10235H76.9543V6.65255H76.955Z" fill="white"/>
<path d="M80.8385 9.40374H80.1042V7.52774C80.1042 6.93624 79.883 6.64014 79.4399 6.64014C79.0997 6.64014 78.8673 6.81164 78.7399 7.15464C78.7182 7.22674 78.7056 7.31494 78.7056 7.41854V9.40304H77.9727V4.58984H78.7056V6.57854H78.7196C78.9506 6.21664 79.2817 6.03604 79.7108 6.03604C80.0146 6.03604 80.2659 6.13544 80.4654 6.33494C80.7139 6.58344 80.8385 6.95304 80.8385 7.44164V9.40374Z" fill="white"/>
<path fill-rule="evenodd" clip-rule="evenodd" d="M84.8175 7.93105C84.835 7.84075 84.8448 7.73015 84.8448 7.59855C84.8448 7.18695 84.7475 6.84045 84.5508 6.56045C84.3072 6.20765 83.9467 6.03125 83.4721 6.03125C82.987 6.03125 82.6027 6.20765 82.3185 6.56045C82.0462 6.89085 81.9111 7.30525 81.9111 7.80295C81.9111 8.30975 82.056 8.71365 82.3486 9.01465C82.6398 9.31565 83.0423 9.46615 83.5533 9.46615C83.9796 9.46615 84.3478 9.39825 84.6607 9.26245L84.5459 8.75285C84.2785 8.85715 83.9817 8.90895 83.6562 8.90895C83.3622 8.90895 83.1221 8.83195 82.9359 8.67795C82.7322 8.50575 82.6272 8.25725 82.6174 7.93105H84.8175ZM84.0025 6.84496C84.1019 7.00316 84.1502 7.19076 84.1446 7.40846H82.6172C82.641 7.18656 82.7131 6.99686 82.8349 6.83796C82.984 6.63846 83.1793 6.53906 83.4187 6.53906C83.6812 6.53906 83.8751 6.64126 84.0025 6.84496Z" fill="white"/>
</svg>
